<?xml version="1.0" encoding="UTF-8"?>
<svg width="390px" height="844px" viewBox="0 0 390 844" version="1.1" xmlns="http://www.w3.org/2000/svg" xmlns:xlink="http://www.w3.org/1999/xlink">
    <title>template-iphone12</title>
    <defs>
        <rect id="path-1" x="0" y="0" width="390" height="844"></rect>
    </defs>
    <g id="template-iphone12" stroke="none" stroke-width="1" fill="none" fill-rule="evenodd">
        <mask id="mask-2" fill="white">
            <use xlink:href="#path-1"></use>
        </mask>
        <use id="Bg" fill="#141945" xlink:href="#path-1"></use>
        <g id="Group" mask="url(#mask-2)" fill="#F8EED8" fill-rule="nonzero">
            <g transform="translate(84.000000, 390.000000)">
                <path d="M2.613,20 L2.613,13.006 L6.331,13.006 L11.713,20 L14.547,20 L8.905,12.876 C11.765,12.33 13.637,10.354 13.637,7.442 C13.637,3.88 11.193,1.8 7.319,1.8 L0.299,1.8 L0.299,20 L2.613,20 Z M7.137,10.952 L2.613,10.952 L2.613,3.932 L7.137,3.932 C9.737,3.932 11.193,5.128 11.193,7.442 C11.193,9.704 9.763,10.952 7.137,10.952 Z M22.4163333,20.26 C24.5223333,20.26 26.5503333,19.558 27.9283333,17.712 L26.3683333,16.386 C25.4063333,17.738 24.0543333,18.258 22.4683333,18.258 C20.2323333,18.258 18.4903333,16.776 18.3083333,13.942 L28.2923333,13.942 C28.3183333,13.734 28.3183333,13.526 28.3183333,13.292 C28.3183333,9.288 25.7703333,6.636 22.3123333,6.636 C18.6723333,6.636 16.0203333,9.288 16.0203333,13.422 C16.0203333,17.504 18.7243333,20.26 22.4163333,20.26 Z M25.9783333,12.226 L18.3603333,12.226 C18.7243333,9.886 20.2063333,8.56 22.2863333,8.56 C24.2103333,8.56 25.6403333,9.73 25.9783333,12.226 Z M33.5616667,25.356 L33.5616667,17.478 C34.4456667,19.09 35.9536667,20.234 38.1376667,20.234 C41.5956667,20.234 44.2216667,17.478 44.2216667,13.422 C44.2216667,9.392 41.5956667,6.636 38.1376667,6.636 C35.9536667,6.636 34.4456667,7.78 33.5616667,9.392 L33.5616667,6.87 L31.3256667,6.87 L31.3256667,25.356 L33.5616667,25.356 Z M37.7476667,18.206 C35.2776667,18.206 33.5096667,16.438 33.5096667,13.448 C33.5096667,10.458 35.2776667,8.664 37.7476667,8.664 C40.2176667,8.664 41.9596667,10.458 41.9596667,13.448 C41.9596667,16.438 40.2176667,18.206 37.7476667,18.206 Z M52.169,20 L52.169,18.024 L51.077,18.024 C50.011,18.024 49.595,17.426 49.595,16.36 L49.595,0.5 L47.359,0.5 L47.359,16.49 C47.359,18.544 48.503,20 50.765,20 L52.169,20 Z M58.9203333,20.26 C60.8183333,20.26 62.2223333,19.714 63.0283333,18.7 L63.0283333,20 L65.1863333,20 L65.1863333,11.81 C65.1863333,8.17 62.3523333,6.636 59.3363333,6.636 C57.1263333,6.636 55.2283333,7.52 54.2403333,9.262 L55.8783333,10.484 C56.5023333,9.34 57.7243333,8.638 59.3103333,8.638 C61.2603333,8.638 62.9503333,9.574 62.9503333,12.018 L62.9503333,13.604 C62.1443333,12.694 60.7923333,12.174 58.9723333,12.174 C56.1123333,12.174 53.6683333,13.63 53.6683333,16.204 C53.6683333,18.83 56.0863333,20.26 58.9203333,20.26 Z M59.5183333,18.492 C57.5423333,18.492 55.9823333,17.738 55.9823333,16.204 C55.9823333,14.67 57.5423333,13.916 59.5183333,13.916 C61.4943333,13.916 63.0023333,14.722 63.0023333,16.204 C63.0023333,17.686 61.4943333,18.492 59.5183333,18.492 Z M74.6156667,20.234 C76.9036667,20.234 79.2696667,19.324 80.4396667,16.828 L78.6196667,15.762 C77.7876667,17.53 76.2276667,18.206 74.6156667,18.206 C72.3016667,18.206 70.4036667,16.516 70.4036667,13.422 C70.4036667,10.354 72.3016667,8.638 74.6156667,8.638 C76.2276667,8.638 77.7876667,9.34 78.6196667,11.108 L80.4396667,10.042 C79.2696667,7.546 76.9036667,6.636 74.6156667,6.636 C70.8976667,6.636 68.1156667,9.418 68.1156667,13.422 C68.1156667,17.452 70.8976667,20.234 74.6156667,20.234 Z M88.881,20.26 C90.987,20.26 93.015,19.558 94.393,17.712 L92.833,16.386 C91.871,17.738 90.519,18.258 88.933,18.258 C86.697,18.258 84.955,16.776 84.773,13.942 L94.757,13.942 C94.783,13.734 94.783,13.526 94.783,13.292 C94.783,9.288 92.235,6.636 88.777,6.636 C85.137,6.636 82.485,9.288 82.485,13.422 C82.485,17.504 85.189,20.26 88.881,20.26 Z M92.443,12.226 L84.825,12.226 C85.189,9.886 86.671,8.56 88.751,8.56 C90.675,8.56 92.105,9.73 92.443,12.226 Z M110.079667,20 L110.079667,18.024 L108.727667,18.024 C107.505667,18.024 106.985667,17.27 106.985667,15.944 L106.985667,8.768 L110.079667,8.768 L110.079667,6.87 L106.985667,6.87 L106.985667,2.554 L104.749667,4.01 L104.749667,6.87 L102.305667,6.87 L102.305667,8.768 L104.749667,8.768 L104.749667,16.126 C104.749667,18.388 105.997667,20 108.519667,20 L110.079667,20 Z M114.985,20 L114.985,12.2 C114.985,10.016 116.467,8.638 118.521,8.638 C120.393,8.638 121.667,9.99 121.667,12.122 L121.667,20 L123.903,20 L123.903,11.784 C123.903,8.638 121.849,6.636 118.989,6.636 C117.403,6.636 115.869,7.312 114.985,8.924 L114.985,0.5 L112.749,0.5 L112.749,20 L114.985,20 Z M128.600333,3.828 C129.510333,3.828 130.212333,3.204 130.212333,2.268 C130.212333,1.384 129.510333,0.734 128.600333,0.734 C127.716333,0.734 127.040333,1.384 127.040333,2.268 C127.040333,3.204 127.716333,3.828 128.600333,3.828 Z M129.718333,20 L129.718333,6.87 L127.482333,6.87 L127.482333,20 L129.718333,20 Z M137.899667,20.26 C141.175667,20.26 143.281667,18.648 143.281667,16.438 C143.281667,14.488 141.981667,13.318 139.251667,12.616 L137.925667,12.278 C136.443667,11.914 135.221667,11.42 135.221667,10.25 C135.221667,9.262 136.261667,8.586 137.873667,8.586 C139.277667,8.586 140.603667,9.158 141.253667,10.614 L143.073667,9.704 C142.163667,7.65 140.161667,6.636 137.873667,6.636 C134.909667,6.636 132.985667,8.144 132.985667,10.276 C132.985667,12.148 134.129667,13.474 136.833667,14.176 L138.159667,14.488 C140.109667,14.982 141.045667,15.45 141.045667,16.49 C141.045667,17.556 139.875667,18.31 137.873667,18.31 C136.365667,18.31 135.039667,17.712 134.311667,16.178 L132.543667,17.218 C133.479667,19.376 135.611667,20.26 137.899667,20.26 Z M153.482333,3.828 C154.392333,3.828 155.094333,3.204 155.094333,2.268 C155.094333,1.384 154.392333,0.734 153.482333,0.734 C152.598333,0.734 151.922333,1.384 151.922333,2.268 C151.922333,3.204 152.598333,3.828 153.482333,3.828 Z M154.600333,20 L154.600333,6.87 L152.364333,6.87 L152.364333,20 L154.600333,20 Z M160.545667,20 L160.545667,12.018 C160.545667,9.886 161.845667,8.638 163.639667,8.638 C165.277667,8.638 166.395667,9.86 166.395667,11.992 L166.395667,20 L168.631667,20 L168.631667,12.018 C168.631667,9.886 169.905667,8.638 171.725667,8.638 C173.337667,8.638 174.481667,9.86 174.481667,11.992 L174.481667,20 L176.717667,20 L176.717667,11.602 C176.717667,8.612 174.793667,6.636 172.115667,6.636 C170.503667,6.636 168.917667,7.364 168.137667,9.132 C167.409667,7.572 165.953667,6.636 164.159667,6.636 C162.729667,6.636 161.351667,7.26 160.545667,8.794 L160.545667,6.87 L158.309667,6.87 L158.309667,20 L160.545667,20 Z M184.691,20.26 C186.589,20.26 187.993,19.714 188.799,18.7 L188.799,20 L190.957,20 L190.957,11.81 C190.957,8.17 188.123,6.636 185.107,6.636 C182.897,6.636 180.999,7.52 180.011,9.262 L181.649,10.484 C182.273,9.34 183.495,8.638 185.081,8.638 C187.031,8.638 188.721,9.574 188.721,12.018 L188.721,13.604 C187.915,12.694 186.563,12.174 184.743,12.174 C181.883,12.174 179.439,13.63 179.439,16.204 C179.439,18.83 181.857,20.26 184.691,20.26 Z M185.289,18.492 C183.313,18.492 181.753,17.738 181.753,16.204 C181.753,14.67 183.313,13.916 185.289,13.916 C187.265,13.916 188.773,14.722 188.773,16.204 C188.773,17.686 187.265,18.492 185.289,18.492 Z M200.048333,25.642 C203.792333,25.642 206.548333,23.432 206.548333,19.402 L206.548333,6.87 L204.312333,6.87 L204.312333,9.288 C203.454333,7.754 201.998333,6.636 199.866333,6.636 C196.434333,6.636 193.912333,9.314 193.912333,13.136 C193.912333,16.958 196.434333,19.662 199.866333,19.662 C201.998333,19.662 203.454333,18.544 204.312333,16.984 L204.312333,19.506 C204.312333,22.262 202.414333,23.64 200.074333,23.64 C198.436333,23.64 197.032333,22.834 196.096333,21.586 L194.562333,22.964 C195.810333,24.732 197.890333,25.642 200.048333,25.642 Z M200.282333,17.634 C197.864333,17.634 196.174333,15.866 196.174333,13.136 C196.174333,10.406 197.864333,8.638 200.282333,8.638 C202.674333,8.638 204.364333,10.562 204.364333,13.136 C204.364333,15.71 202.674333,17.634 200.282333,17.634 Z M216.003667,20.26 C218.109667,20.26 220.137667,19.558 221.515667,17.712 L219.955667,16.386 C218.993667,17.738 217.641667,18.258 216.055667,18.258 C213.819667,18.258 212.077667,16.776 211.895667,13.942 L221.879667,13.942 C221.905667,13.734 221.905667,13.526 221.905667,13.292 C221.905667,9.288 219.357667,6.636 215.899667,6.636 C212.259667,6.636 209.607667,9.288 209.607667,13.422 C209.607667,17.504 212.311667,20.26 216.003667,20.26 Z M219.565667,12.226 L211.947667,12.226 C212.311667,9.886 213.793667,8.56 215.873667,8.56 C217.797667,8.56 219.227667,9.73 219.565667,12.226 Z" id="Replacethisimage"></path>
                <path d="M59.214,59.694 C62.932,59.694 65.714,57.484 65.714,54.052 C65.714,51.01 63.452,48.878 59.656,48.722 L65.09,43.054 L65.09,41.26 L54.118,41.26 L54.118,43.34 L60.124,43.34 C61.086,43.34 61.996,43.288 62.334,43.158 L62.36,43.236 C62.048,43.392 61.372,44.016 60.748,44.718 L56.822,48.904 L56.822,50.672 L58.98,50.672 C61.554,50.672 63.374,51.92 63.374,54.156 C63.374,56.392 61.476,57.562 59.318,57.562 C57.472,57.562 55.782,56.704 54.872,54.728 L53,55.82 C54.144,58.42 56.406,59.694 59.214,59.694 Z M72.6213333,59.512 L78.8613333,50.984 C79.8493333,49.632 80.2653333,48.306 80.2653333,46.876 C80.2653333,43.574 77.6133333,41.078 73.9733333,41.078 C70.3333333,41.078 67.6813333,43.6 67.6813333,46.928 C67.6813333,50.152 70.2293333,52.596 73.5313333,52.596 C74.2593333,52.596 74.8833333,52.466 75.4033333,52.258 L69.8653333,59.512 L72.6213333,59.512 Z M73.9733333,50.542 C71.6853333,50.542 70.0213333,49.008 70.0213333,46.876 C70.0213333,44.744 71.6593333,43.21 73.9733333,43.21 C76.2873333,43.21 77.8993333,44.744 77.8993333,46.876 C77.8993333,49.008 76.2873333,50.542 73.9733333,50.542 Z M89.7206667,59.72 C93.6986667,59.72 96.5586667,56.47 96.5586667,50.36 C96.5586667,44.25 93.6986667,41 89.7206667,41 C85.7166667,41 82.8566667,44.25 82.8566667,50.36 C82.8566667,56.47 85.7166667,59.72 89.7206667,59.72 Z M89.7206667,57.588 C87.0166667,57.588 85.2486667,55.378 85.2486667,50.36 C85.2486667,45.342 87.0166667,43.132 89.7206667,43.132 C92.3986667,43.132 94.1666667,45.342 94.1666667,50.36 C94.1666667,55.378 92.3986667,57.588 89.7206667,57.588 Z M107.045333,59.46 L109.567333,56.184 C110.191333,55.378 110.711333,54.52 110.815333,54.208 L110.919333,54.208 C110.997333,54.52 111.543333,55.378 112.141333,56.184 L114.663333,59.46 L117.341333,59.46 L112.245333,52.752 L117.133333,46.33 L114.507333,46.33 L112.219333,49.294 C111.595333,50.1 111.075333,50.958 110.971333,51.27 L110.893333,51.27 C110.815333,50.958 110.243333,50.1 109.645333,49.294 L107.357333,46.33 L104.653333,46.33 L109.567333,52.778 L104.445333,59.46 L107.045333,59.46 Z M131.676,59.694 C135.264,59.694 138.124,57.77 138.124,54.39 C138.124,51.946 136.616,50.516 134.744,49.814 C136.304,49.138 137.5,47.864 137.5,45.81 C137.5,42.794 134.874,41.026 131.676,41.026 C128.426,41.026 125.8,42.794 125.8,45.81 C125.8,47.864 127.022,49.138 128.582,49.814 C126.684,50.516 125.176,51.946 125.176,54.39 C125.176,57.77 128.088,59.694 131.676,59.694 Z M131.676,48.826 C129.7,48.826 128.114,47.838 128.114,45.914 C128.114,44.094 129.7,43.08 131.676,43.08 C133.6,43.08 135.186,44.094 135.186,45.914 C135.186,47.838 133.6,48.826 131.676,48.826 Z M131.676,57.64 C129.414,57.64 127.516,56.47 127.516,54.208 C127.516,52.024 129.414,50.828 131.676,50.828 C133.912,50.828 135.784,52.024 135.784,54.208 C135.784,56.47 133.912,57.64 131.676,57.64 Z M151.063333,59.46 L151.063333,54.858 L153.611333,54.858 L153.611333,52.804 L151.063333,52.804 L151.063333,41.26 L149.009333,41.26 L140.351333,52.518 L140.351333,54.858 L148.801333,54.858 L148.801333,59.46 L151.063333,59.46 Z M142.327333,53.012 L142.301333,52.908 C142.613333,52.752 143.211333,52.076 143.731333,51.374 L147.449333,46.512 C148.125333,45.628 148.749333,44.718 148.879333,44.38 L148.957333,44.406 C148.853333,44.77 148.801333,45.862 148.801333,46.98 L148.801333,52.804 L144.407333,52.804 C143.523333,52.804 142.665333,52.856 142.327333,53.012 Z M166.212667,59.46 L166.212667,54.858 L168.760667,54.858 L168.760667,52.804 L166.212667,52.804 L166.212667,41.26 L164.158667,41.26 L155.500667,52.518 L155.500667,54.858 L163.950667,54.858 L163.950667,59.46 L166.212667,59.46 Z M157.476667,53.012 L157.450667,52.908 C157.762667,52.752 158.360667,52.076 158.880667,51.374 L162.598667,46.512 C163.274667,45.628 163.898667,44.718 164.028667,44.38 L164.106667,44.406 C164.002667,44.77 163.950667,45.862 163.950667,46.98 L163.950667,52.804 L159.556667,52.804 C158.672667,52.804 157.814667,52.856 157.476667,53.012 Z" id="390x844(@2x)"></path>
            </g>
        </g>
    </g>
</svg>